<svg width="259" height="601" viewBox="0 0 259 601" fill="none" xmlns="http://www.w3.org/2000/svg">
<mask id="mask0_464_18" style="mask-type:luminance" maskUnits="userSpaceOnUse" x="8" y="0" width="234" height="601">
<path d="M242 0H8V601H242V0Z" fill="white"/>
</mask>
<g mask="url(#mask0_464_18)">
<path d="M97.5505 150.399C110.821 150.446 109.61 142.781 120.76 140.592C127.2 139.328 132.75 147.01 138.91 149.691C148 153.648 158.901 144.478 166.531 150.837C167.251 151.434 170.61 155.691 171.39 156.677L170.62 157.942C177.45 169.816 181.44 168.306 193.94 171.585C203.81 173.999 199.66 187.381 204.62 194.259C210.75 202.75 219.3 200.453 222.23 211.832C220.49 218.698 217.23 227.726 221.15 234.01C224.66 239.641 228.05 243.279 230.27 249.708C227 258.929 221.53 260.276 219.2 268.513C217.55 274.358 223.631 283.435 220.931 289.825C217.891 297.031 208.401 298.21 204.431 304.569C200.611 310.7 203.14 323.174 196.23 326.252C190.91 328.623 183.28 328.021 178.23 330.968C172.59 334.255 168.78 346.225 163.9 348.721C157.75 351.86 147.581 345.132 140.801 347.08C132.811 349.372 127.49 360.624 118.86 357.108C113.06 354.744 108.65 348.003 102.46 346.622C95.6104 345.096 86.7405 352.168 80.0405 348.917C75.2405 346.586 72.3205 337.597 68.0205 333.153C60.7405 325.639 48.6705 331.655 44.1305 321.548C41.7605 316.258 42.1605 308.125 39.0005 303.713C35.4705 298.769 26.2104 296.851 23.4404 290.826C20.4704 284.369 24.7804 278.183 24.9404 271.034C25.1704 261.088 10.9705 255.85 15.3905 245.864C17.9705 240.03 22.5005 236.961 25.2405 230.349C24.6905 225.954 24.0105 220.915 23.0105 216.615C20.0505 203.906 31.9104 202.109 39.9404 194.832L40.2004 194.187C42.9904 186.973 41.6505 174.208 49.8605 171.571L61.4704 169.391L61.6105 167.211C72.5205 164.048 71.3704 152.72 81.2204 148.502C86.0404 148.491 93.0205 148.749 97.5505 150.399Z" fill="url(#paint0_linear_464_18)"/>
<path d="M97.5508 150.399C110.821 150.446 109.611 142.781 120.761 140.592C127.201 139.328 132.751 147.01 138.911 149.691C148.001 153.648 158.901 144.478 166.531 150.837C167.251 151.434 170.611 155.691 171.391 156.677L170.621 157.942C170.111 157.19 169.591 156.442 169.071 155.697C159.681 142.401 149.691 156.595 136.611 150.589C131.811 148.565 127.161 141.705 121.651 141.668C115.731 141.627 102.631 157.716 97.5508 150.399Z" fill="#1B64DD"/>
<path d="M61.6107 167.211C72.5207 164.048 71.3707 152.72 81.2207 148.502C79.7607 152.98 68.2108 166.133 63.8108 168.433C63.0608 168.829 62.2807 169.15 61.4707 169.391L61.6107 167.211Z" fill="#1B64DD"/>
<path d="M115.339 163.238C163.099 159.604 204.729 195.451 208.219 243.22C211.719 290.99 175.749 332.516 127.979 335.875C80.399 339.221 39.079 303.433 35.599 255.857C32.109 208.282 67.779 166.858 115.339 163.238Z" fill="#07408D"/>
<path d="M116.051 165.853C162.291 162.58 202.441 197.407 205.731 243.651C209.021 289.896 174.211 330.055 127.971 333.362C81.7007 336.671 41.5207 301.837 38.2307 255.568C34.9407 209.3 69.7808 169.128 116.051 165.853Z" fill="#1458BA"/>
<path d="M111.921 171.55C154.991 166.047 194.371 196.482 199.901 239.546C205.431 282.61 175.03 322.012 131.97 327.576C88.8705 333.146 49.4205 302.702 43.8805 259.594C38.3505 216.487 68.8206 177.058 111.921 171.55Z" fill="#1B64DD"/>
<path d="M129.301 198.23C130.111 198.172 130.911 198.128 131.721 198.166C134.181 198.276 136.501 199.397 138.121 201.266C140.941 204.54 141.731 210.767 141.181 214.599C138.281 234.647 123.761 252.169 107.221 263.029C102.451 266.163 95.971 288.056 101.291 291.568C117.211 302.063 124.691 276.103 131.531 269.73C133.601 269.606 132.771 269.444 134.771 270.65C135.851 273.294 135.461 272.729 134.891 275.961C127.761 290.692 116.471 305.67 97.5809 299.922C80.4509 294.708 87.8909 266.916 92.2309 254.884C98.4309 237.734 112.011 206.713 129.301 198.23Z" fill="white"/>
<path d="M132.69 208.732C134.14 210.044 134.65 211.512 134.47 213.463C133.03 228.845 120.52 243.781 109.97 253.906L109.14 253.818C108.58 246.405 125.82 214.484 132.69 208.732Z" fill="#1B64DD"/>
<path d="M147.091 283.535C148.511 283.311 149.951 283.251 151.391 283.357C153.401 283.504 155.241 284.505 156.461 286.104C160.391 291.254 155.851 297.195 151.551 300.174C150.331 300.337 147.651 300.504 146.441 300.26C144.601 299.891 142.981 298.799 141.941 297.228C138.541 292.028 142.851 286.438 147.091 283.535Z" fill="white"/>
<path d="M58.4393 93.9116C59.4593 97.0614 59.3494 108.763 59.6794 113.342C60.8694 108.929 59.9394 87.8147 61.6094 84.8379V167.211L61.4694 169.391L49.8594 171.571C41.6494 174.208 42.9893 186.973 40.1993 194.187L39.9393 194.832C31.9093 202.109 20.0494 203.906 23.0094 216.615C24.0094 220.915 24.6894 225.954 25.2394 230.349C22.4994 236.961 17.9694 240.03 15.3894 245.864C10.9694 255.85 25.1693 261.088 24.9393 271.034C24.7793 278.183 20.4693 284.369 23.4393 290.826C26.2093 296.851 35.4694 298.769 38.9994 303.713C42.1594 308.125 41.7594 316.258 44.1294 321.548C48.6694 331.655 60.7394 325.639 68.0194 333.153C72.3194 337.597 75.2394 346.586 80.0394 348.917C86.7394 352.168 95.6094 345.096 102.459 346.622C108.649 348.003 113.059 354.744 118.859 357.108C127.489 360.624 132.809 349.372 140.799 347.08C147.579 345.132 157.749 351.86 163.899 348.721C168.779 346.225 172.589 334.255 178.229 330.968C183.279 328.021 190.909 328.623 196.229 326.252C203.139 323.174 200.609 310.7 204.429 304.569C208.399 298.21 217.889 297.031 220.929 289.825C223.629 283.435 217.549 274.358 219.199 268.513C221.529 260.276 226.999 258.929 230.269 249.708C228.049 243.279 224.659 239.641 221.149 234.01C217.229 227.726 220.489 218.698 222.229 211.832C219.299 200.453 210.749 202.75 204.619 194.259C199.659 187.381 203.809 173.999 193.939 171.585L194.719 170.456L195.389 169.444C199.199 171.367 201.189 172.558 202.589 176.881C204.019 181.346 203.679 186.125 205.579 190.566C209.069 198.681 219.609 199.524 223.279 207.009C226.519 213.624 221.589 220.533 221.559 227.487C221.519 237.768 237.189 243.175 230.869 254.706C227.759 260.366 224.099 262.951 221.149 269.059C221.979 275.28 224.239 282.602 224.719 287.827C220.149 299.124 214.799 297.184 207.819 304.821C200.599 312.729 208.079 324.023 195.249 329.366C195.869 378.462 195.039 427.706 195.309 476.817C195.329 480.951 195.789 505.025 194.969 507.737C196.039 533.109 194.989 564.603 195.209 590.563C170.789 573.034 146.209 555.737 121.469 538.675C97.4394 554.611 73.4693 573.942 49.1993 590.2L49.0294 328.711C38.1394 327.415 41.6694 311.378 36.7994 305.188C33.3094 300.752 26.4894 298.635 22.5394 293.792C17.1894 287.231 21.6394 277.74 22.6794 268.945C20.3994 263.725 14.6194 257.707 12.7594 252.184C10.3894 245.129 18.9093 237.209 22.6893 230.262C22.1093 224.3 20.4594 218.492 20.2194 212.454C19.8294 202.796 30.8094 200.253 37.7394 193.226L38.2294 192.713C40.7194 184.627 38.8194 175.265 47.2694 170.549L48.6294 170.43L58.3094 168.124C57.9194 144.565 57.7693 117.479 58.4393 93.9116Z" fill="url(#paint1_linear_464_18)"/>
<path d="M141.831 348.307C144.041 348.415 154.981 350.456 156.471 351.109C169.751 356.916 174.321 330.493 181.471 332.006C182.341 333.21 182.861 334.934 182.881 336.421C183.071 361.664 182.371 387.034 182.911 412.272L182.841 511.33C182.931 529.691 183.481 548.923 183.221 567.159C163.531 552.468 141.811 537.733 121.721 523.44C101.361 537.794 81.1009 552.843 60.5909 566.796C60.3909 515.125 61.491 463.605 61.131 411.65C63.381 400.714 59.2109 336.358 62.3509 332.183C69.6409 331.977 71.1009 346.232 81.3409 351.859C91.2009 351.012 100.591 344.646 108.901 352.155C125.571 367.21 127.941 354.686 141.831 348.307Z" fill="url(#paint2_linear_464_18)"/>
<path d="M58.4393 93.9116C59.4593 97.0614 59.3494 108.763 59.6794 113.342C60.8694 108.929 59.9394 87.8147 61.6094 84.8379V167.211L61.4694 169.391L49.8594 171.571C41.6494 174.208 42.9893 186.973 40.1993 194.187L39.9393 194.832C31.9093 202.109 20.0494 203.906 23.0094 216.615C24.0094 220.915 24.6894 225.954 25.2394 230.349C22.4994 236.961 17.9694 240.03 15.3894 245.864C10.9694 255.85 25.1693 261.088 24.9393 271.034C24.7793 278.183 20.4693 284.369 23.4393 290.826C26.2093 296.851 35.4694 298.769 38.9994 303.713C42.1594 308.125 41.7594 316.258 44.1294 321.548C48.6694 331.655 60.7394 325.639 68.0194 333.153C72.3194 337.597 75.2394 346.586 80.0394 348.917C86.7394 352.168 95.6094 345.096 102.459 346.622C108.649 348.003 113.059 354.744 118.859 357.108C127.489 360.624 132.809 349.372 140.799 347.08C147.579 345.132 157.749 351.86 163.899 348.721C168.779 346.225 172.589 334.255 178.229 330.968C183.279 328.021 190.909 328.623 196.229 326.252C203.139 323.174 200.609 310.7 204.429 304.569C208.399 298.21 217.889 297.031 220.929 289.825C223.629 283.435 217.549 274.358 219.199 268.513C221.529 260.276 226.999 258.929 230.269 249.708C228.049 243.279 224.659 239.641 221.149 234.01C217.229 227.726 220.489 218.698 222.229 211.832C219.299 200.453 210.749 202.75 204.619 194.259C199.659 187.381 203.809 173.999 193.939 171.585L194.719 170.456L195.389 169.444C199.199 171.367 201.189 172.558 202.589 176.881C204.019 181.346 203.679 186.125 205.579 190.566C209.069 198.681 219.609 199.524 223.279 207.009C226.519 213.624 221.589 220.533 221.559 227.487C221.519 237.768 237.189 243.175 230.869 254.706C227.759 260.366 224.099 262.951 221.149 269.059C221.979 275.28 224.239 282.602 224.719 287.827C220.149 299.124 214.799 297.184 207.819 304.821C200.599 312.729 208.079 324.023 195.249 329.366C195.869 378.462 195.039 427.706 195.309 476.817C195.329 480.951 195.789 505.025 194.969 507.737C193.779 504.046 194.639 467.581 194.649 461.327L194.659 328.908C191.829 329.391 189.009 329.851 186.179 330.288C186.749 348.211 186.889 366.144 186.619 384.074C183.799 374.37 186.319 343.353 184.999 330.892L184.729 330.971C183.829 347.321 184.579 365.528 183.729 382.1C183.419 388.154 184.229 407.715 182.909 412.272C182.369 387.034 183.069 361.664 182.879 336.421C182.859 334.934 182.339 333.21 181.469 332.006C174.319 330.493 169.749 356.916 156.469 351.109C154.979 350.456 144.039 348.415 141.829 348.307C127.939 354.686 125.569 367.21 108.899 352.155C100.589 344.646 91.1994 351.012 81.3394 351.859C71.0994 346.232 69.6394 331.977 62.3494 332.183C59.2094 336.358 63.3794 400.714 61.1294 411.65C57.8394 405.823 63.5594 342.037 59.5594 331.46L59.3694 331.647C59.8694 364.818 59.6893 397.996 58.8193 431.159C58.6693 436.115 59.0094 449.843 57.9194 453.929C57.2194 442.281 57.7993 424.168 57.8193 412.15L57.8394 330.336C54.9694 329.715 51.9294 329.225 49.0294 328.711C38.1394 327.415 41.6694 311.378 36.7994 305.188C33.3094 300.752 26.4894 298.635 22.5394 293.792C17.1894 287.231 21.6394 277.74 22.6794 268.945C20.3994 263.725 14.6194 257.707 12.7594 252.184C10.3894 245.129 18.9093 237.209 22.6893 230.262C22.1093 224.3 20.4594 218.492 20.2194 212.454C19.8294 202.796 30.8094 200.253 37.7394 193.226L38.2294 192.713C40.7194 184.627 38.8194 175.265 47.2694 170.549L48.6294 170.43L58.3094 168.124C57.9194 144.565 57.7693 117.479 58.4393 93.9116Z" fill="#1B64DD"/>
<path d="M182.911 412.272C184.231 407.715 183.421 388.154 183.731 382.1C184.581 365.528 183.831 347.321 184.731 330.971L185.001 330.892C186.321 343.353 183.801 374.37 186.621 384.074L186.811 573.014C172.131 562.244 157.351 551.611 142.481 541.116C135.861 536.36 128.381 530.085 121.581 525.968C100.561 541.824 78.3208 558.078 57.0508 573.636C57.5008 534.617 56.8008 492.443 57.9208 453.929C59.0108 449.843 58.6707 436.115 58.8207 431.159C59.6907 397.996 59.8707 364.818 59.3707 331.647L59.5608 331.46C63.5608 342.037 57.8407 405.823 61.1307 411.65C61.4907 463.605 60.3907 515.125 60.5907 566.796C81.1007 552.843 101.361 537.794 121.721 523.44C141.811 537.733 163.531 552.468 183.221 567.159C183.481 548.923 182.931 529.691 182.841 511.33L182.911 412.272Z" fill="#4481D4"/>
<path d="M61.7194 0H182.749H186.669H195.019C195.089 55.9717 194.379 113.592 195.389 169.444L194.719 170.456L193.939 171.585C181.439 168.306 177.449 169.816 170.619 157.942L171.389 156.677C170.609 155.691 167.249 151.434 166.529 150.837C158.899 144.478 147.999 153.648 138.909 149.691C132.749 147.01 127.199 139.328 120.759 140.592C109.609 142.781 110.819 150.446 97.5494 150.399C93.0194 148.749 86.0394 148.491 81.2194 148.502C71.3694 152.72 72.5194 164.048 61.6094 167.211V84.8381C62.1894 56.9034 61.8494 27.9872 61.7194 0Z" fill="#1458BA"/>
<path d="M186.67 0H195.02C195.09 55.9717 194.38 113.592 195.39 169.444L194.72 170.456C192.49 170.126 188.8 168.943 186.49 168.276C187.21 112.715 186.91 55.5873 186.67 0Z" fill="#1458BA"/>
<path d="M182.749 0H186.669C186.909 55.5873 187.209 112.715 186.489 168.276C188.799 168.943 192.489 170.126 194.719 170.456L193.939 171.585C181.439 168.306 177.449 169.816 170.619 157.942L171.389 156.677C173.129 159.878 178.119 168.104 182.299 166.673C183.669 162.016 182.809 128.047 182.799 120.641L182.749 0Z" fill="#4481D4"/>
<path d="M49.0509 0H57.9009H61.7208C61.8508 27.9872 62.1908 56.9034 61.6108 84.8381C59.9408 87.8149 60.8709 108.929 59.6809 113.342C59.3509 108.763 59.4608 97.0616 58.4408 93.9118C57.7708 117.479 57.9209 144.565 58.3109 168.124L48.6309 170.43C49.2409 166.803 49.0509 156.74 49.0509 152.768V120.538V0Z" fill="#1458BA"/>
<path d="M57.9004 0H61.7203C61.8503 27.9872 62.1904 56.9034 61.6104 84.8381C59.9404 87.8149 60.8704 108.929 59.6804 113.342C59.3504 108.763 59.4603 97.0616 58.4403 93.9118C57.7203 86.3584 58.0003 71.1619 57.9603 62.9835L57.9004 0Z" fill="#4481D4"/>
</g>
<defs>
<linearGradient id="paint0_linear_464_18" x1="106.222" y1="354.118" x2="137.476" y2="144.611" gradientUnits="userSpaceOnUse">
<stop stop-color="#1651A2"/>
<stop offset="1" stop-color="#1863D8"/>
</linearGradient>
<linearGradient id="paint1_linear_464_18" x1="94.9833" y1="321.159" x2="149.04" y2="596.526" gradientUnits="userSpaceOnUse">
<stop stop-color="#114B95"/>
<stop offset="1" stop-color="#186AE7"/>
</linearGradient>
<linearGradient id="paint2_linear_464_18" x1="119.446" y1="331.534" x2="123.806" y2="564.814" gradientUnits="userSpaceOnUse">
<stop stop-color="#124D9C"/>
<stop offset="1" stop-color="#1665DE"/>
</linearGradient>
</defs>
</svg>
