<svg width="1024" height="1024" viewBox="0 0 1024 1024" fill="none" xmlns="http://www.w3.org/2000/svg">
<path d="M507.84 82.6641C534.225 78.4681 554.02 106.071 573.825 118.75C596.58 133.32 618.08 119.533 641.355 114.574C702.745 101.494 695.11 166.427 728.135 184.735C749.575 196.621 778.545 188.098 800.215 202.42C822.67 217.259 819.47 248.112 824.17 271.266C830.545 302.637 854.12 304.755 877.125 320.222C898.99 334.926 903.455 355.66 896.8 380.33C892.77 395.274 884 413.448 888.67 428.959C895.93 453.093 923.365 466.479 928.29 492.159C934.34 523.685 910.55 538.92 895.025 561.73C878.75 585.645 894.335 606.64 899.015 631.305C905.96 667.935 884.285 680.68 856.21 696.575C846.595 702.02 836.505 707.715 831.075 717.78C819.515 739.215 828.365 769.445 812.755 792.21C797.105 815.035 767.315 811.24 743.505 815.74C713.265 821.46 709.74 849.7 694.645 871.685C660.335 921.655 617.15 872.945 585.015 883.05C561.02 890.595 548.67 919.11 518.015 924.9C489.37 928.125 473.046 905.255 451.904 889.505C427.577 871.38 405.661 889.81 378.856 893.735C322.601 901.965 326.172 840.58 294.471 820.45C278.751 810.465 241.35 817.65 220.919 801.705C199.451 784.955 202.266 759.225 198.372 734.095C193.34 701.62 170.048 700.895 146.078 683.47C123.642 667.16 120.41 648.235 127.414 622.29C131.266 608.015 140.311 587.955 135.125 573.51C126.441 549.315 99.6181 536.015 95.4796 508.41C91.3236 480.691 111.849 464.491 127.46 444.376C147.392 418.693 129.184 397.669 125.273 369.294C117.527 313.087 175.076 318.583 194.929 286.436C205.04 270.064 199.51 230.664 214.724 211.398C229.099 193.195 253.007 193.435 274.679 190.874C315.267 186.077 313.102 158.41 333.984 130.737C365.436 89.0576 408.016 134.571 441.256 123.491C462.997 116.245 479.231 86.7271 507.84 82.6641Z" fill="#1D65E6"/>
<path d="M509.764 93.1756C529.499 90.3776 552.489 118.05 568.819 128.42C594.754 144.885 618.284 130.931 645.034 124.756C694.164 113.416 688.494 176.818 722.664 194.297C744.884 206.317 773.844 198.873 794.509 211.648C811.234 221.991 810.124 255.23 813.784 273.856C820.809 309.575 845.499 312.426 871.534 329.434C912.239 356.03 866.999 398.05 878.599 433.226C886.754 457.97 913.004 471.044 917.994 495.422C922.769 518.725 898.979 536.825 886.524 554.645C866.304 583.565 882.384 603.39 888.334 633.255C898.224 682.925 838.864 679.285 821.444 712.505C810.234 733.875 817.129 765.585 803.444 786.075C791.654 803.72 761.004 801.64 741.549 805.13C705.654 811.565 702.859 840.14 685.269 866.065C657.014 907.71 616.104 860.66 581.019 872.625C556.784 880.89 541.969 909.46 515.734 914.245C495.126 916.825 475.285 893.5 459.575 881.575C429.018 858.385 409.394 877.685 377.202 882.925C329.237 890.73 333.535 827.68 298.593 810.11C275.411 798.455 248.661 807.91 227.781 792.975C210.666 780.735 212.211 753.025 209.22 733.31C205.008 705.55 193.349 697.605 169.141 684.64C162.988 681.345 156.298 677.905 150.735 673.605C111.863 643.545 157.983 606.155 145.096 568.855C136.574 544.19 109.727 530.535 105.904 505.665C102.673 484.636 123.953 466.75 135.704 451.407C153.162 428.611 148.374 411.674 140.418 386.218C138.574 380.318 136.578 373.225 135.782 367.051C129.614 319.227 187.204 326.225 204.996 290.606C216.665 267.247 209.427 238.069 223.541 217.806C233.173 203.977 259.295 203.753 274.933 201.88C307.678 197.959 317.306 184.205 331.424 156.036C334.07 150.757 338.93 141.737 342.632 136.896C366.447 105.757 402.364 139.603 434.618 136.039C465.698 132.604 482.635 96.5976 509.764 93.1756Z" fill="#165DCA"/>
<path d="M501.83 171.714C511.76 170.637 526.86 171.981 536.92 172.737C604.24 177.797 670.2 205.157 721.41 249.074C791.695 309.353 831.195 391.582 837.495 483.6C842.78 570.84 813.805 656.7 756.74 722.895C693.225 795.635 617.455 829.97 522.18 836.425C440.251 838.565 360.558 809.56 299.175 755.255C239.146 702.305 200.061 629.615 188.997 550.34C164.843 380.383 275.138 215.101 444.247 178.913C463.218 174.977 482.473 172.57 501.83 171.714Z" fill="#0C4AA3"/>
<path d="M499.509 178.719C499.922 178.681 500.334 178.642 500.749 178.604C687.354 172.485 837.969 328.598 831.114 514.305C825.519 665.755 720.344 793.01 571.399 823.875C556.049 827.06 541.754 828.275 526.104 829.36C517.469 829.4 505.159 829.81 496.773 829.28C435.276 825.89 376.108 804.62 326.531 768.075C170.138 652.905 146.917 428.928 276.787 284.373C327.192 227.971 396.015 191.337 470.951 181.02C479.725 179.846 490.628 179.193 499.509 178.719Z" fill="#1252AE"/>
<path d="M498.763 200.718C499.602 200.663 500.44 200.618 501.28 200.582C580.69 197.344 654.74 227.205 712.84 280.618C771.92 335.644 806.65 411.936 809.35 492.627C812.18 573.97 782.645 653.12 727.225 712.735C676.08 768.045 600.655 804.545 525.165 807.585C509.47 809.08 486.771 807 471.163 804.58C413.66 796.14 359.93 770.9 316.718 732.035C255.342 677.035 218.563 599.73 214.602 517.41C212.512 476.122 219.881 434.258 234.271 395.519C275.596 284.267 379.441 206.763 498.763 200.718Z" fill="#1D65E6"/>
<path d="M389.013 682.095C375.993 665.41 373.84 646.355 373.772 625.525C373.761 622.345 374.895 618.925 374.908 616.065C375.025 591.305 380.868 566.81 386.92 542.915C388.639 536.21 391.934 528.385 394.191 521.71C407.237 482.424 424.273 444.578 445.033 408.765C449.089 401.668 459.927 382.446 466.067 377.511L466.221 377.976C464.309 381.843 459.913 385.82 458.586 387.844C455.55 392.476 432.627 430.411 432.673 433.632L433.934 432.562L434.12 432.918L433.819 432.64C434.54 434.492 426.436 447.96 425.139 450.601C420.884 459.446 416.989 468.46 413.462 477.62L412.531 477.792L412.737 478.918L413.092 478.455L412.592 478.725L412.471 475.496C409.346 480.57 409.336 487.506 408.198 489.647C405.051 495.569 394.227 531.675 391.852 533.945C391.507 533.1 392.938 528.675 393.259 527.16L392.756 527.455C392.406 528.325 391.777 529.86 391.693 530.725C391.231 535.495 388.426 537.14 388.414 542.01L388.846 542.1L389.384 541.58L389.706 541.795C389.318 545.65 386.889 554.01 385.722 558.05C384.444 562.47 383.952 565.72 382.933 569.915L382.399 572.195L383.026 572.145C385.813 560.79 388.165 550.66 391.536 539.315C404.451 496.689 422.051 455.623 444.012 416.872C445.385 414.469 445.878 412.573 446.976 410.717C455.479 396.235 464.447 382.032 473.866 368.128C475.648 365.465 484.881 353.857 485.238 352.71C484.525 353.288 483.877 353.739 483.129 354.277L482.849 353.638C483.357 346.806 495.912 339.1 500.114 333.11C511.219 317.287 541.599 297.279 561.664 306.141C560.204 306.661 557.009 305.369 554.394 305.169C545.199 304.334 534.884 306.643 526.954 311.414C522.054 314.361 515.699 319.016 512.044 323.435L512.809 323.825C514.669 322.193 518.139 318.692 520.144 317.788C526.339 314.39 530.094 311.172 536.954 309.112C547.839 305.846 559.804 305.426 569.584 313.259L569.424 314.176C581.779 326.089 585.919 339.177 586.044 356.234C586.454 411.131 546.454 473.426 509.539 511.235C495.767 525.37 480.584 538.055 464.226 549.09C458.278 553.135 451.487 556.865 445.923 560.74C435.381 584.005 420.432 632.255 428.954 657.57C430.713 662.795 435.128 668.015 440.469 670.07C450.665 674 464.021 671.565 473.794 667.32C475.573 666.55 480.042 664.33 481.469 663.265C482.381 661.11 488.736 657.25 491.351 654.9C494.259 652.285 502.759 645.79 504.229 641.9C504.124 642.18 504.199 640.32 504.229 640.27C509.199 632.015 514.919 623.215 520.529 615.355C521.324 614.245 523.259 613.135 524.094 612.665C529.109 602.59 533.804 575.145 550.934 575.58C551.749 575.6 552.259 575.73 552.719 576.35L548.839 576.56C551.934 576.95 559.389 577.485 559.609 581.505C571.019 601.625 546.614 632.84 535.624 649.555C533.449 652.855 527.969 658.33 526.434 661.235L526.664 661.965C524.159 665.915 519.844 669.72 516.614 672.715C490.928 696.535 454.897 708.545 420.405 699.295C415.996 698.11 409.965 694.075 404.42 692.995L404.179 691.775C403.022 690.565 399.201 687.575 397.653 687.33L398.367 688.84C395.513 687.775 396.293 684.265 389.471 682.23L389.013 682.095Z" fill="white"/>
<path d="M389.013 682.095C375.993 665.41 373.84 646.355 373.772 625.525C373.761 622.345 374.895 618.925 374.908 616.065C375.025 591.305 380.868 566.81 386.92 542.915C388.639 536.21 391.934 528.385 394.191 521.71C407.237 482.424 424.273 444.578 445.033 408.765C449.089 401.668 459.927 382.446 466.067 377.511L466.221 377.976C464.309 381.843 459.913 385.82 458.586 387.844C455.55 392.476 432.627 430.411 432.673 433.632L433.934 432.562L434.12 432.918L433.819 432.64C434.54 434.492 426.436 447.96 425.139 450.601C420.884 459.446 416.989 468.46 413.462 477.62L412.531 477.792L412.737 478.918L413.092 478.455L412.592 478.725L412.471 475.496C409.346 480.57 409.336 487.506 408.198 489.647C405.051 495.569 394.227 531.675 391.852 533.945C391.507 533.1 392.938 528.675 393.259 527.16L392.756 527.455C392.406 528.325 391.777 529.86 391.693 530.725C391.231 535.495 388.426 537.14 388.414 542.01L388.846 542.1L389.384 541.58L389.706 541.795C389.318 545.65 386.889 554.01 385.722 558.05C384.444 562.47 383.952 565.72 382.933 569.915L382.399 572.195L383.026 572.145C385.813 560.79 388.165 550.66 391.536 539.315C404.451 496.689 422.051 455.623 444.012 416.872C445.385 414.469 445.878 412.573 446.976 410.717C455.479 396.235 464.447 382.032 473.866 368.128C475.648 365.465 484.881 353.857 485.238 352.71C484.525 353.288 483.877 353.739 483.129 354.277L482.849 353.638C483.357 346.806 495.912 339.1 500.114 333.11C511.219 317.287 541.599 297.279 561.664 306.141C560.204 306.661 557.009 305.369 554.394 305.169C545.199 304.334 534.884 306.643 526.954 311.414C522.054 314.361 515.699 319.016 512.044 323.435L512.809 323.825C514.669 322.193 518.139 318.692 520.144 317.788C526.339 314.39 530.094 311.172 536.954 309.112C547.839 305.846 559.804 305.426 569.584 313.259L569.424 314.176L568.749 313.843C566.759 312.85 565.044 311.374 563.024 310.436C555.309 306.852 545.744 307.398 537.829 309.951C495.654 323.556 451.433 402.895 432.106 441.216C406.203 492.576 362.854 601.955 381.631 658.95C386.647 674.18 395.832 686.68 410.317 693.975C429.46 703.615 453.892 703.47 473.938 696.78C495.378 689.625 510.934 677.215 526.434 661.235L526.664 661.965C524.159 665.915 519.844 669.72 516.614 672.715C490.928 696.535 454.897 708.545 420.405 699.295C415.996 698.11 409.965 694.075 404.42 692.995L404.179 691.775C403.022 690.565 399.201 687.575 397.653 687.33L398.367 688.84C395.513 687.775 396.293 684.265 389.471 682.23L389.013 682.095Z" fill="#1D65E6"/>
<path d="M524.096 612.665C529.111 602.59 533.806 575.145 550.936 575.58C551.751 575.6 552.261 575.73 552.721 576.35L548.841 576.56C551.936 576.95 559.391 577.485 559.611 581.505C551.546 575.96 546.041 576.055 540.721 585.26C536.556 592.475 533.606 600.245 529.566 607.52C520.686 625.2 498.933 655.035 481.471 663.265C482.382 661.11 488.738 657.25 491.353 654.9C494.26 652.285 502.761 645.79 504.231 641.9C504.126 642.18 504.201 640.32 504.231 640.27C509.201 632.015 514.921 623.215 520.531 615.355C521.326 614.245 523.261 613.135 524.096 612.665Z" fill="#1D65E6"/>
<path d="M548.525 355.236C563.095 346.839 557.03 376.008 555.505 382.018C549.72 406.096 534.515 437.45 520.035 457.489C510.5 473.167 489.479 499.127 475.035 510.605C470.401 515.255 464.73 519.28 459.295 522.91C462.891 512.5 468.994 496.13 472.828 486.351C483.762 458.468 524.62 368.318 548.525 355.236Z" fill="#1D65E6"/>
<path d="M548.525 355.236C563.095 346.839 557.03 376.008 555.505 382.018C549.72 406.096 534.515 437.45 520.035 457.489C510.5 473.167 489.479 499.127 475.036 510.605C474.272 507.17 484.554 502.25 485.278 499.293C482.307 499.797 477.034 506.09 473.276 507.755L472.855 507.305C477.164 502.28 483.027 499.848 487.67 495.854C491.442 492.421 493.441 486.672 496.561 482.908C503.555 474.472 510.245 466.556 515.72 456.993C517.265 454.291 519.925 451.297 521.74 448.482C521.995 448.159 522.24 447.83 522.48 447.497C525.59 443.185 529.285 435.814 531.765 430.571C534.075 425.682 538.515 418.854 540.435 413.8C546.63 397.477 556.38 377.772 554.23 359.966C554.055 358.516 553.085 358.221 551.97 357.485L552.575 356.746C553.855 356.661 554.7 356.303 555.99 356.101C552.58 353.622 552.935 354.957 549.39 355.186L548.525 355.236Z" fill="#1D65E6"/>
<path d="M548.525 355.236C563.095 346.839 557.03 376.008 555.505 382.018L554.905 381.775C555.7 373.81 554.77 364.735 555.99 356.101C552.58 353.622 552.935 354.957 549.39 355.186L548.525 355.236Z" fill="#1252AE"/>
<path d="M613.31 631.62C656.145 627.355 657.64 678.485 628.25 695.755C625.365 697.45 621.9 698.295 618.655 699.155C572.5 706.29 571.515 639.37 613.31 631.62Z" fill="white"/>
</svg>
