<svg width="401" height="537" viewBox="0 0 401 537" fill="none" xmlns="http://www.w3.org/2000/svg">
<path d="M233.844 0.209111C251.634 -1.67289 267.614 9.36611 275.854 24.5551C290.654 51.6451 286.164 89.2171 277.734 117.692C254.444 196.394 200.881 266.867 136.165 316.458C123.134 326.444 109.508 334.445 95.2537 342.473C92.5217 348.173 89.6918 357.657 87.8738 364.612C79.3548 397.203 65.7838 435.593 74.0648 469.169C75.9458 476.798 85.2067 486.538 91.8237 489.754C104.411 495.872 118.952 494.735 131.861 490.186C181.526 472.552 212.514 423.805 233.854 378.293C239.144 367.033 247.004 361.38 259.254 367.684C278.004 377.326 267.504 404.173 260.334 418.329C231.664 474.02 182.037 529.774 115.129 536.165C86.7567 538.875 53.9827 532.422 32.3787 513.266C-15.4443 470.865 0.391763 397.259 12.9418 342.589C30.3518 255.693 132.188 6.75211 233.844 0.209111Z" fill="#1B64DD"/>
<path d="M234.865 62.3081C246.925 67.2101 241.415 95.4151 238.805 105.254C222.945 164.828 185.196 220.951 142.74 265.091C137.079 270.976 126.467 280.442 119.552 284.747L114.852 287.987C115.86 282.666 118.85 274.215 120.72 268.939C129.247 245.027 138.497 221.38 148.459 198.029C162.257 166.48 205.486 76.2931 234.865 62.3081Z" fill="white"/>
<path d="M348.704 437.545C376.144 434.588 397.704 448.833 400.174 477.247C401.494 491.937 396.834 506.539 387.254 517.751C379.774 526.598 369.094 533.031 357.424 534.044C311.814 541.596 289.564 491.221 314.844 457.546C322.984 446.594 335.184 439.384 348.704 437.545Z" fill="#1B64DD"/>
</svg>
