<svg width="32" height="32" viewBox="0 0 32 32" fill="none" xmlns="http://www.w3.org/2000/svg">
<path d="M19.7469 23.747L17.5782 23.1806V12.8308L19.8996 12.2428C21.1724 11.9195 22.2415 11.6561 22.2924 11.6663C22.3331 11.6663 22.3636 14.5108 22.3636 17.9943V24.3236L22.1396 24.3134C22.0073 24.3134 20.928 24.0512 19.7469 23.747Z" fill="#00C8D2"/>
<path d="M9.63637 21.1443C9.63637 17.6621 9.66691 14.8061 9.71782 14.8061C9.75855 14.796 10.8276 15.0607 12.1106 15.384L14.4218 15.9707L14.4015 21.1252L14.3709 26.2785L12.2938 26.8156C11.1535 27.1083 10.0844 27.382 9.93164 27.4125L9.63637 27.4838V21.1443Z" fill="#3C8CFF"/>
<path d="M25.2145 15.9707C25.2145 4.47793 25.2247 3.86065 25.3978 3.91156C25.4895 3.94211 26.3956 4.17502 27.4036 4.42829C28.4116 4.69174 29.4095 4.94374 29.6233 4.99465L30 5.09647L29.9491 26.8958L27.8822 27.4227C26.752 27.7154 25.6829 27.9788 25.52 28.0208L25.2145 28.0908V15.9707Z" fill="#78E6DC"/>
<path fill-rule="evenodd" clip-rule="evenodd" d="M2 16.0113C2 10.0575 2.03055 5.18676 2.08145 5.18676C2.12218 5.18676 3.19127 5.45021 4.464 5.76458L6.78546 6.3513V16.0011C6.78546 21.2957 6.76509 25.6408 6.74473 25.6408C6.71418 25.6408 5.63491 25.9144 4.352 26.2389L2 26.8346V16.0113Z" fill="#325AB4"/>
</svg>
