<svg width="32" height="32" viewBox="0 0 32 32" fill="none" xmlns="http://www.w3.org/2000/svg">
<path fill-rule="evenodd" clip-rule="evenodd" d="M8.986 3.89233C7.93619 4.9191 7.12636 6.16526 6.61447 7.5416C6.10257 8.91795 5.90128 10.3904 6.025 11.8537C6.43217 16.9963 11.282 21.1812 15.6803 21.1812C19.7718 21.1812 21.3737 17.61 20.9782 15.1845C20.8321 14.2936 20.4493 13.4583 19.8698 12.766C20.6072 13.1627 21.3212 13.6713 21.9803 14.2827C23.7537 15.9335 24.827 18.0498 24.9985 20.2327C25.38 25.0568 21.81 30 15.8402 30C13.8627 30 11.7802 29.496 10.0302 28.6665C5.28533 26.4265 2 21.5965 2 16.0023C2 10.8328 4.80583 6.31667 8.986 3.89233ZM16.1587 2C18.1373 2 20.2198 2.504 21.9687 3.3335C26.717 5.5735 30 10.4035 30 15.9977C30 21.1672 27.1942 25.6845 23.014 28.1077C24.0638 27.0809 24.8736 25.8347 25.3855 24.4584C25.8974 23.0821 26.0987 21.6096 25.975 20.1463C25.5678 15.0037 20.718 10.8188 16.3197 10.8188C12.2282 10.8188 10.6263 14.39 11.0218 16.8155C11.1679 17.7071 11.552 18.5427 12.1337 19.234C11.3678 18.8208 10.6582 18.3111 10.022 17.7173C8.24867 16.0665 7.17533 13.9525 7.0015 11.7673C6.62 6.94317 10.19 2 16.1598 2H16.1587Z" fill="#4285F4"/>
</svg>
