<svg width="32" height="32" viewBox="0 0 32 32" fill="none" xmlns="http://www.w3.org/2000/svg">
<path opacity="0.35" fill-rule="evenodd" clip-rule="evenodd" d="M29.9727 15.7245C30.2624 15.7245 30.4999 15.8741 30.4999 16.057V17.1863C30.4999 17.3692 30.2624 17.5188 29.9727 17.5188C29.6829 17.5188 29.4454 17.3692 29.4454 17.1863V16.0558C29.4454 15.8741 29.6829 15.7245 29.9727 15.7245ZM27.8779 16.1662C28.1677 16.1662 28.4052 16.3159 28.4052 16.4987V18.9865C28.4052 19.1682 28.1677 19.3179 27.8779 19.3179C27.587 19.3179 27.3507 19.1682 27.3507 18.9854V16.4975C27.3507 16.3159 27.5882 16.1662 27.8779 16.1662ZM25.782 16.6816C26.0717 16.6816 26.3092 16.83 26.3092 17.0129V19.8095C26.3092 19.9924 26.0717 20.142 25.782 20.142C25.4922 20.142 25.2547 19.9924 25.2547 19.8095V17.0129C25.2547 16.83 25.4922 16.6816 25.782 16.6816ZM23.6872 17.1079C23.977 17.1079 24.2145 17.2564 24.2145 17.4392V20.2061C24.2145 20.3878 23.977 20.5374 23.6872 20.5374C23.3975 20.5374 23.16 20.3878 23.16 20.2049V17.438C23.16 17.2564 23.3975 17.1079 23.6872 17.1079ZM21.5913 17.4832C21.8822 17.4832 22.1185 17.6328 22.1185 17.8157V20.2109C22.1185 20.3937 21.881 20.5434 21.5913 20.5434C21.3015 20.5434 21.064 20.3937 21.064 20.2109V17.8157C21.064 17.6328 21.3015 17.4832 21.5913 17.4832ZM19.5072 19.0115C19.797 19.0115 20.0345 19.1599 20.0345 19.344V20.104C20.0345 20.2857 19.797 20.4341 19.5072 20.4341C19.2175 20.4341 18.98 20.2857 18.98 20.1028V19.3428C18.98 19.1599 19.2175 19.0115 19.5072 19.0115Z" fill="white"/>
<path fill-rule="evenodd" clip-rule="evenodd" d="M29.7227 12.5919C30.0125 12.5919 30.25 12.7403 30.25 12.9232V14.7935C30.25 14.9764 30.0125 15.126 29.7227 15.126C29.433 15.126 29.1955 14.9764 29.1955 14.7935V12.9232C29.1955 12.7403 29.433 12.5907 29.7227 12.5907V12.5919ZM27.628 11.3355C27.9177 11.3355 28.1553 11.4839 28.1553 11.668V15.0049C28.1553 15.1866 27.9177 15.335 27.628 15.335C27.3371 15.335 27.1007 15.1866 27.1007 15.0037V11.6668C27.1007 11.4839 27.3382 11.3355 27.628 11.3355ZM25.5321 10.8629C25.8218 10.8629 26.0593 11.0125 26.0593 11.1954V15.5499C26.0593 15.7316 25.8218 15.8824 25.5321 15.8824C25.2423 15.8824 25.0048 15.7316 25.0048 15.5499V11.1942C25.0048 11.0125 25.2423 10.8629 25.5321 10.8629ZM23.4373 10.6562C23.7271 10.6562 23.9646 10.8059 23.9646 10.9887V16.0831C23.9646 16.266 23.7271 16.4156 23.4373 16.4156C23.1476 16.4156 22.9101 16.266 22.9101 16.0831V10.9887C22.9101 10.8059 23.1476 10.6562 23.4373 10.6562ZM21.3414 10.7857C21.6323 10.7857 21.8686 10.9353 21.8686 11.1182V16.2898C21.8686 16.4726 21.6311 16.6223 21.3414 16.6223C21.0516 16.6223 20.8141 16.4726 20.8141 16.2898V11.117C20.8141 10.9353 21.0516 10.7845 21.3414 10.7845V10.7857ZM19.2573 11.1099C19.5471 11.1099 19.7846 11.2583 19.7846 11.4424V17.8952C19.7846 18.0769 19.5471 18.2278 19.2573 18.2278C18.9676 18.2278 18.7301 18.0781 18.7301 17.8952V11.44C18.7301 11.2571 18.9676 11.1075 19.2573 11.1075V11.1099ZM17.1186 11.6597C17.4084 11.6597 17.6459 11.8081 17.6459 11.991V19.3084C17.6459 19.4913 17.4084 19.6409 17.1186 19.6409C16.8289 19.6409 16.5914 19.4913 16.5914 19.3084V11.991C16.5914 11.8081 16.8289 11.6585 17.1186 11.6585V11.6597ZM15.0239 12.5907C15.3136 12.5907 15.5511 12.7403 15.5511 12.9232V19.9627C15.5511 20.1456 15.3136 20.2952 15.0239 20.2952C14.7329 20.2952 14.4966 20.1456 14.4966 19.9627V12.9232C14.4966 12.7403 14.7341 12.5907 15.0239 12.5907ZM12.9279 13.8043C13.2189 13.8043 13.4552 13.9539 13.4552 14.1368V20.2655C13.4552 20.4484 13.2177 20.598 12.9279 20.598C12.6382 20.598 12.4007 20.4484 12.4007 20.2655V14.1356C12.4007 13.9528 12.6382 13.8031 12.9279 13.8031V13.8043ZM10.8332 14.6427C11.1229 14.6427 11.3604 14.7923 11.3604 14.9752V21.0124C11.3604 21.1941 11.1229 21.3438 10.8332 21.3438C10.5434 21.3438 10.3059 21.1941 10.3059 21.0112V14.9752C10.3059 14.7923 10.5434 14.6427 10.8332 14.6427ZM8.74794 15.3374C9.03888 15.3374 9.27519 15.487 9.27519 15.6699V18.8821C9.27519 19.0649 9.03769 19.2146 8.74794 19.2146C8.45819 19.2146 8.22069 19.0649 8.22069 18.8821V15.6687C8.22069 15.487 8.45819 15.3374 8.74794 15.3374ZM6.59025 12.2047C6.88 12.2047 7.1175 12.3544 7.1175 12.5372V17.0153C7.1175 17.1982 6.88 17.3478 6.59025 17.3478C6.3005 17.3478 6.063 17.1982 6.063 17.0153V12.5372C6.063 12.3544 6.3005 12.2047 6.59025 12.2047ZM4.43613 12.4981C4.72588 12.4981 4.96219 12.6477 4.96219 12.8306V14.2081C4.96219 14.3898 4.72469 14.5394 4.43613 14.5394C4.14519 14.5394 3.90887 14.3897 3.90887 14.2069V12.8294C3.90887 12.6477 4.14638 12.4981 4.43613 12.4981ZM2.27725 12.3128C2.567 12.3128 2.8045 12.4624 2.8045 12.6453V13.2664C2.8045 13.4481 2.567 13.5977 2.27725 13.5977C1.9875 13.5977 1.75 13.4481 1.75 13.2652V12.6453C1.75 12.4624 1.9875 12.3128 2.27725 12.3128ZM8.74913 11.7879C9.03888 11.7879 9.27519 11.9376 9.27519 12.1204V12.5859C9.27519 12.7688 9.03769 12.9184 8.74794 12.9184C8.45819 12.9184 8.22069 12.7688 8.22069 12.5859V12.1193C8.22069 11.9364 8.45819 11.7867 8.74794 11.7867L8.74913 11.7879Z" fill="white"/>
</svg>
