<svg width="32" height="32" viewBox="0 0 32 32" fill="none" xmlns="http://www.w3.org/2000/svg">
<path d="M8.46693 7.16638C9.15368 6.91766 9.89136 7.04924 10.6036 7.01528C11.3837 6.96095 12.135 7.25127 12.8192 7.59507C14.185 8.31662 15.2725 9.45837 16.2258 10.6536C16.2826 10.7028 16.3149 10.814 16.4066 10.8005C17.5169 9.34547 18.7792 7.85653 20.544 7.19949C21.2639 6.88455 22.0593 7.05093 22.8182 7C24.2545 7.15704 25.5253 8.00763 26.5083 9.02799C28.128 10.7359 29.0855 12.9719 29.5982 15.2452C29.9718 17.1145 30.156 19.0542 29.8351 20.9463C29.594 22.3487 29.0032 23.7884 27.8258 24.6577C26.8886 25.3631 25.6705 25.566 24.5253 25.437C23.2647 25.358 22.1374 24.6424 21.2936 23.74C20.2367 22.6144 19.4125 21.2995 18.6035 19.9914C17.7334 18.5593 16.8989 17.106 16.011 15.6841C14.7979 17.7129 13.7326 19.8335 12.4032 21.7918C11.7402 22.7536 11.0212 23.6976 10.1087 24.4378C9.4092 25.0066 8.54333 25.3928 7.63672 25.4446C6.43216 25.5507 5.15373 25.3156 4.17921 24.5634C3.05953 23.7205 2.43136 22.375 2.18518 21.0227C1.86685 19.4523 2.00861 17.8326 2.23866 16.2596C2.61981 14.0924 3.37786 11.9592 4.66138 10.1562C5.60874 8.8302 6.88886 7.66553 8.46693 7.16638ZM21.4286 9.3616C20.7766 9.46601 20.2053 9.83952 19.7206 10.2699C18.9974 10.9202 18.4312 11.7181 17.8862 12.5169C17.8454 12.5908 17.7724 12.6561 17.7682 12.7444C19.3208 15.0721 20.651 17.5398 22.2087 19.8649C22.7189 20.6119 23.2138 21.3903 23.9065 21.9845C24.617 22.6085 25.8139 22.645 26.5075 21.976C27.0287 21.4574 27.2061 20.7002 27.2884 19.9939C27.3275 18.9515 27.3479 17.8955 27.1653 16.8641C26.9735 15.2401 26.5134 13.634 25.7333 12.1918C25.2129 11.2521 24.5236 10.3692 23.5941 9.80727C22.9532 9.41253 22.1739 9.23512 21.4286 9.3616ZM8.82941 10.2572C7.83706 10.7809 7.13503 11.713 6.60193 12.6765C5.61722 14.5042 5.12657 16.5754 5.04423 18.6416C5.01876 19.5457 5.04083 20.4956 5.45084 21.3224C5.68344 21.802 6.08836 22.2282 6.61467 22.3716C7.30651 22.5957 8.09003 22.3988 8.64944 21.9506C9.2148 21.499 9.65707 20.9192 10.0849 20.3419C10.7352 19.4489 11.3302 18.5177 11.9261 17.5882C12.7912 16.2053 13.708 14.8539 14.5662 13.4677C14.0662 12.7707 13.5569 12.0746 12.9558 11.46C12.4058 10.8837 11.7683 10.3539 10.9983 10.1103C10.2903 9.90234 9.49154 9.90064 8.82941 10.2572Z" fill="#0275EF"/>
</svg>
