<svg width="24" height="30" viewBox="0 0 24 30" fill="none" xmlns="http://www.w3.org/2000/svg">
<path d="M19.7008 29.4874C21.9566 28.0563 23.5162 20.3807 23.1731 18.0951C23.1731 18.0951 22.8156 16.868 21.9431 16.8679C21.0707 16.8679 20.7077 17.7871 20.7077 17.7871C20.7077 17.7871 20.4781 18.6357 20.1177 19.7042C19.5602 21.357 19.3257 23.3964 17.8717 23.9128C16.4177 24.4291 14.9636 23.9405 14.9636 23.9405C15.9523 27.6904 17.445 30.9186 19.7008 29.4874Z" fill="white"/>
<path fill-rule="evenodd" clip-rule="evenodd" d="M8.52382 15.442C7.69512 15.5349 7.25862 15.8481 7.11142 15.9954C6.5297 16.577 6.2389 17.1587 6.2389 17.4495C6.2389 17.7403 5.5547 16.088 5.4044 15.9332C4.9568 15.4723 4.9677 14.7358 5.4286 14.2883C6.0756 13.66 7.13372 13.2567 8.26462 13.1299C9.43762 12.9984 10.8285 13.145 12.236 13.7684C13.8786 14.496 14.7584 16.0302 15.0907 17.4323C15.2594 18.144 15.3025 18.8753 15.216 19.5419C15.1321 20.1889 14.9112 20.8809 14.4517 21.4075C13.4946 22.5046 12.0828 22.381 11.3191 22.219C10.8887 22.1277 10.5092 21.9936 10.2422 21.8859C10.1068 21.8313 9.99562 21.7815 9.91572 21.7442C9.87572 21.7254 9.84332 21.7097 9.81932 21.6978C9.80742 21.6918 9.79752 21.6869 9.78982 21.683L9.77992 21.6779L9.77622 21.676L9.77402 21.6749C9.77402 21.6749 9.77342 21.6745 10.3106 20.6427L9.77402 21.6749C9.20412 21.3782 8.98212 20.6754 9.27882 20.1055C9.57492 19.5368 10.2752 19.3151 10.8444 19.6092M10.8444 19.6092L10.8528 19.6134C10.8622 19.6181 10.879 19.6263 10.9024 19.6372C10.9493 19.6592 11.0214 19.6916 11.1124 19.7283C11.2982 19.8032 11.5436 19.8883 11.8019 19.9431C12.4155 20.0733 12.6361 19.9497 12.6987 19.878C12.7491 19.8202 12.8589 19.6275 12.9088 19.2427C12.9562 18.8775 12.9361 18.4298 12.8269 17.9688C12.6033 17.0253 12.068 16.2385 11.2937 15.8956C10.2843 15.4485 9.31052 15.3538 8.52382 15.442" fill="white"/>
<path fill-rule="evenodd" clip-rule="evenodd" d="M0.832892 3.42198C0.549952 3.99877 0.788173 4.69572 1.36497 4.97866C2.19344 5.38505 2.91238 5.78577 3.6242 6.58837C4.0505 7.06897 4.7857 7.11297 5.2664 6.68667C5.747 6.26037 5.791 5.52517 5.3647 5.04453C4.3504 3.9009 3.3063 3.33957 2.38958 2.8899C1.81278 2.60696 1.11583 2.84518 0.832892 3.42198Z" fill="white"/>
<path fill-rule="evenodd" clip-rule="evenodd" d="M7.11995 0.0350079C6.49663 0.190828 6.11773 0.822398 6.27353 1.44568C6.38243 1.88112 6.48393 2.25345 6.57683 2.59429C6.75473 3.24666 6.90123 3.78368 7.00745 4.42703C7.11205 5.06091 7.71075 5.48994 8.34465 5.3853C8.97845 5.28065 9.40755 4.68197 9.30285 4.04809C9.17735 3.28769 8.98185 2.56823 8.78565 1.84609C8.69885 1.52632 8.61175 1.20602 8.53065 0.881408C8.37485 0.258138 7.74325 -0.120812 7.11995 0.0350079Z" fill="white"/>
<path fill-rule="evenodd" clip-rule="evenodd" d="M13.7693 0.750713C13.22 0.417443 12.5046 0.592533 12.1713 1.14178C11.5619 2.14622 11.0817 3.40904 10.9013 4.79399C10.8184 5.43107 11.2676 6.01477 11.9046 6.09773C12.5417 6.18067 13.1254 5.73148 13.2084 5.09441C13.345 4.04491 13.7111 3.08912 14.1604 2.34866C14.4936 1.79941 14.3185 1.08398 13.7693 0.750713Z" fill="white"/>
<path fill-rule="evenodd" clip-rule="evenodd" d="M16.3286 10.1793C18.6363 10.6404 18.6366 10.6387 18.6366 10.6387L18.637 10.637L18.6376 10.6334L18.639 10.6261L18.6418 10.6104C18.6437 10.5995 18.6457 10.5876 18.6477 10.5747C18.6519 10.5491 18.6563 10.5196 18.6606 10.4866C18.6692 10.421 18.6779 10.339 18.6837 10.2442C18.6948 10.0613 18.6971 9.79567 18.6503 9.48757C18.5617 8.90387 18.2218 7.79757 17.0239 7.15627L16.7869 7.02937L16.528 6.95767L15.9325 9.17687C16.4635 9.46117 16.3286 10.1793 16.3286 10.1793ZM15.9596 11.6434L16.3286 10.1793L18.6363 10.6404L18.6236 10.708L18.2511 12.186C18.1794 12.5493 18.17 12.757 18.1739 12.8667C18.177 12.956 18.1887 12.9853 18.1944 12.9997L18.195 13.0014C18.2096 13.0385 18.2473 13.119 18.385 13.3278C18.4412 13.413 18.4995 13.4983 18.5739 13.607C18.5935 13.6358 18.6143 13.6662 18.6365 13.6987C18.7364 13.8451 18.8534 14.0176 18.9772 14.2107C19.7512 15.4169 19.8272 16.5746 19.8231 17.3165C19.8231 17.3273 19.823 17.3382 19.8229 17.349C19.9154 17.3807 20.0137 17.4127 20.1181 17.446C20.1525 17.4569 20.1982 17.4713 20.2461 17.4865C20.3135 17.5077 20.3852 17.5304 20.4365 17.5468C20.5374 17.5792 20.6662 17.6213 20.7908 17.6677C20.8775 17.7 20.9607 17.7323 21.0389 17.7647C21.1141 17.7958 21.2058 17.8357 21.3023 17.8844C21.3772 17.9222 21.499 17.987 21.6369 18.0826L22.849 18.6042L22.8315 20.157C22.8211 21.0699 22.4538 22.0324 22.1933 22.6283C21.9061 23.2852 21.5266 23.9858 21.1773 24.4515C20.6894 25.1018 20.1365 25.7885 19.4715 26.2277C19.0794 26.4865 18.606 26.6923 18.0474 26.7598C17.5497 26.82 17.119 26.7533 16.8026 26.6763L16.7093 26.6572C16.6156 26.6379 16.4812 26.6102 16.3177 26.5762C15.9911 26.5082 15.5459 26.4145 15.0738 26.3119C14.2033 26.1229 13.0234 25.8585 12.4668 25.6738L12.4266 25.6604L12.3869 25.6457C12.1401 25.554 11.7227 25.4512 11.0314 25.2936C10.9896 25.284 10.947 25.2743 10.9037 25.2645C10.3073 25.1288 9.5733 24.9617 8.8783 24.7512C8.1585 24.5332 7.2681 24.209 6.51218 23.6807C5.71868 23.1262 4.81658 22.1484 4.76628 20.6818C4.75878 20.4622 4.76378 20.25 4.77738 20.0486C4.42008 19.6613 4.12018 19.155 3.96868 18.5067C3.82098 17.875 3.90268 17.315 4.00628 16.922C4.11008 16.5279 4.26788 16.1835 4.39978 15.926C4.44428 15.8391 4.49048 15.7534 4.53648 15.6706C4.10028 15.5329 3.60768 15.3629 3.12818 15.1585C2.50193 14.8915 1.61336 14.4511 0.94999 13.7402C0.59271 13.3573 0.21861 12.8085 0.0673498 12.091C-0.0909402 11.3401 0.0405899 10.6197 0.34882 10.0028C1.09916 8.50107 2.53238 7.97057 3.80708 7.92467C4.95818 7.88317 6.18298 8.20527 7.2804 8.59017C8.2803 8.94087 9.7115 9.59317 10.9272 10.1613C11.3277 9.50467 11.8555 8.76267 12.3552 8.16347L12.4545 8.04437L12.5694 7.93987C13.4292 7.15727 14.395 6.89417 15.131 6.83767C15.4918 6.81007 15.8024 6.83067 16.0348 6.86087C16.1522 6.87607 16.2535 6.89427 16.3357 6.91147C16.3769 6.92007 16.4137 6.92857 16.4458 6.93637C16.4618 6.94027 16.4767 6.94407 16.4904 6.94767L16.5101 6.95287L16.5193 6.95527L16.5237 6.95657L16.5258 6.95717C16.5258 6.95717 16.528 6.95767 15.9325 9.17687C15.9325 9.17687 15.0039 8.91977 14.2056 9.62447C14.1976 9.63157 14.1895 9.63877 14.1815 9.64607C14.1568 9.67577 14.1319 9.70587 14.1071 9.73627C14.0714 9.77997 14.0356 9.82437 13.9998 9.86947C13.9893 9.88267 13.9788 9.89587 13.9684 9.90917C13.1717 10.92 13.2189 11.3423 11.7647 13.0874C11.7647 13.0874 11.0072 12.7366 10.5541 12.5236C10.2432 12.3774 9.9146 12.223 9.5797 12.0673C8.4994 11.565 7.3542 11.0499 6.52998 10.7608C4.50088 10.0492 3.00493 9.95877 2.45889 11.0516C1.73859 12.4932 4.66358 13.3284 6.13328 13.7482C6.44278 13.8366 6.68778 13.9065 6.82068 13.9598C7.5745 14.2624 7.6271 14.8695 7.4026 15.4137C7.2716 15.7312 7.1969 15.9102 6.82098 16.2861C6.23928 16.8678 6.14388 17.5565 6.25498 18.0316C6.31058 18.2695 6.42058 18.4425 6.55138 18.5683C6.90218 18.9058 7.4025 18.9037 7.4025 18.9037C7.4025 18.9037 7.0799 19.728 7.1115 20.6487C7.1184 20.8514 7.1729 21.0358 7.2668 21.2045C7.8245 22.2056 9.7717 22.6492 11.4078 23.0218C12.0949 23.1784 12.7272 23.3224 13.1786 23.4899C13.9876 23.7584 17.2898 24.4292 17.2898 24.4292C17.8992 24.5891 18.277 24.3956 19.2792 23.0596C19.6955 22.5047 20.4756 20.9351 20.4851 20.0867C20.3585 20.0323 20.3497 20.0133 20.3408 19.9942C20.3286 19.968 20.3163 19.9416 19.9963 19.8224C19.8893 19.7825 19.746 19.7373 19.5821 19.6856C18.8998 19.4704 17.8591 19.1422 17.581 18.6129C17.4459 18.3559 17.4566 18.0111 17.469 17.6079C17.4883 16.9809 17.512 16.2128 16.9994 15.4139C16.8736 15.2178 16.7529 15.0413 16.64 14.8762C15.9972 13.9365 15.6072 13.3663 15.9596 11.6434ZM5.21098 14.4813C5.21248 14.477 5.21198 14.478 5.21008 14.4838L5.21098 14.4813ZM19.8112 18.0563C19.8112 18.0563 19.8112 18.0472 19.8094 18.0315C19.81 18.0488 19.8112 18.0563 19.8112 18.0563Z" fill="white"/>
</svg>
