<svg width="32" height="32" viewBox="0 0 32 32" fill="none" xmlns="http://www.w3.org/2000/svg">
<path d="M16.0338 6C8.30231 6 2.03516 12.2143 2.03516 19.8824V26.5302H4.61497V25.8667C4.61497 22.7556 7.15514 20.2339 10.2927 20.2339C13.4302 20.2339 15.9704 22.7556 15.9704 25.8667V26.5302H18.5502V25.8667C18.5502 21.3441 14.8523 17.6779 10.2927 17.6779C8.51642 17.6779 6.87231 18.233 5.5269 19.1819C6.93575 16.4039 9.83805 14.4954 13.1897 14.4954C17.9238 14.4954 21.7618 18.3044 21.7618 22.9961V26.5275H24.3416V22.9961C24.3416 16.8876 19.3485 11.9341 13.1897 11.9341C10.4196 11.9341 7.88732 12.9359 5.9366 14.5932C7.85296 11.001 11.654 8.55603 16.0365 8.55603C22.3433 8.55603 27.4553 13.6258 27.4553 19.8797V26.5275H30.0352V19.8797C30.0325 12.2143 23.7654 6 16.0338 6Z" fill="white"/>
</svg>
