<svg width="248" height="61" viewBox="0 0 248 61" fill="none" xmlns="http://www.w3.org/2000/svg">
<g clip-path="url(#clip0_17974_413)">
<path fill-rule="evenodd" clip-rule="evenodd" d="M221.313 0C229.403 0 237.5 1.828 241.639 5.48375L241.624 5.4765C245.77 9.13975 247.847 14.326 247.847 21.0357V40.0042C247.847 46.6197 245.756 51.7335 241.595 55.3387C237.42 58.9437 229.323 60.75 221.226 60.75C213.136 60.75 204.554 60.692 199.909 55.4185C194.981 49.819 196.8 45.5515 198.788 40.8865C199.97 38.1125 201.213 35.1977 201.132 31.7785C201.057 28.6777 199.676 26.4827 198.294 24.285C196.306 21.1257 194.315 17.961 196.197 12.092C199.75 1.00825 211.783 0 221.313 0ZM232.376 48.5057C234.236 46.6777 235.17 43.544 235.17 39.083V21.9643C235.17 17.409 234.243 14.1955 232.376 12.3095C230.51 10.4235 225.35 9.49525 220.871 9.49525C216.392 9.49525 211.233 10.4307 209.366 12.3095C207.507 14.1882 206.573 17.409 206.573 21.9645V39.083C206.573 43.5368 207.499 46.6777 209.366 48.5057C211.233 50.3335 216.392 51.2475 220.871 51.2475C225.35 51.2475 230.51 50.3335 232.376 48.5057ZM25.2215 60.4162C20.3817 60.4162 15.7872 59.669 11.4307 58.1748C7.07424 56.6805 3.30924 54.3665 0.135742 51.2257L4.46324 42.768C7.59374 45.4155 10.9547 47.403 14.5467 48.7233C18.1387 50.0505 22.2355 50.7035 26.83 50.7035C30.494 50.7035 33.2852 50.0433 35.1895 48.7233C37.0937 47.3958 38.053 45.488 38.053 42.9855C38.053 40.737 36.9422 39.0975 34.7135 38.0965C32.492 37.0883 27.782 35.9713 20.5982 34.7453C13.7027 33.6645 8.83424 31.9165 5.99974 29.4865C3.16524 27.0565 1.74424 23.4223 1.74424 18.5623C1.74424 13.318 3.70599 8.96575 7.61524 5.513C11.5317 2.0675 17.2515 0.33375 24.7815 0.33375C29.3327 0.33375 33.6677 1.081 37.815 2.5825C41.9477 4.07675 45.2152 6.144 47.6097 8.79875L43.7942 16.8867C40.8587 14.6597 37.786 12.9625 34.5837 11.7948C31.3812 10.634 28.0417 10.0465 24.5725 10.0465C21.3412 10.0465 18.8022 10.6267 16.9412 11.7802C15.0804 12.9334 14.15 14.7177 14.15 17.1332C14.15 19.3965 15.2897 21.0212 17.5617 22.0077C19.8337 22.9942 24.6372 24.1332 31.9727 25.4097C38.7742 26.585 43.5635 28.42 46.3547 30.9228C49.146 33.418 50.5382 37.0955 50.5382 41.9482C50.5382 47.7802 48.295 52.3137 43.8232 55.549C39.344 58.784 33.1482 60.4017 25.2215 60.4017V60.4162ZM88.5665 60.7497C79.8225 60.7497 71.5427 58.9435 67.6855 55.3312C63.8282 51.7117 61.8995 46.1262 61.8995 38.5462V1.00125H74.4282V37.509C74.4282 42.2237 75.262 45.575 76.937 47.5407C78.6117 49.5137 83.803 50.493 88.5737 50.493C93.3447 50.493 98.536 49.5065 100.211 47.5407C101.272 46.2952 101.541 44.4412 101.884 42.084C102.082 40.7205 102.305 39.1887 102.719 37.509C103.134 35.8347 104.611 33.6795 106.125 31.4708C108.028 28.6933 109.99 25.8312 109.97 23.7342C109.949 21.6355 107.989 18.9102 106.096 16.2785C104.594 14.189 103.133 12.1585 102.719 10.547C102.125 8.24025 102.719 1.00125 102.719 1.00125H115.248C115.248 1.00125 115.379 8.1605 115.248 10.547C115.167 11.9862 114.877 14.0512 114.577 16.1855C114.203 18.8485 113.814 21.619 113.798 23.415C113.781 25.5783 114.195 28.9513 114.587 32.1558L114.587 32.156C114.885 34.5822 115.17 36.9117 115.248 38.5462C115.611 46.1117 113.319 51.719 109.462 55.3312C105.598 58.9435 97.325 60.7497 88.581 60.7497H88.5665ZM164.223 59.7433C164.223 59.7433 161.252 56.3497 158.84 48.4557C157.964 45.5845 157.675 43.1607 157.409 40.926C157.065 38.0325 156.758 35.4555 155.262 32.6338C154.045 30.337 152.176 29.0487 150.05 27.5835C148.301 26.3787 146.38 25.0543 144.503 22.951C140.805 18.8058 139.194 14.0028 139.194 14.0028V59.7433H128.348V1.007H145.574C145.574 1.007 150.856 9.31725 153.208 14.3888C154.486 17.1445 154.918 19.6182 155.354 22.1112C155.827 24.817 156.304 27.545 157.87 30.6805C160.503 35.9577 162.156 37.2797 164.105 38.8392C165.097 39.6322 166.165 40.487 167.478 41.9545C169.676 44.4112 170.603 46.8918 170.603 46.8918V1.00675H181.379V59.7433H164.223Z" fill="white"/>
</g>
<defs>
<clipPath id="clip0_17974_413">
<rect width="248" height="60.75" fill="white"/>
</clipPath>
</defs>
</svg>
